<svg width="256" height="256" viewBox="0 0 256 256" fill="none" xmlns="http://www.w3.org/2000/svg">
<mask id="mask0_236_266" style="mask-type:luminance" maskUnits="userSpaceOnUse" x="10" y="21" width="236" height="214">
<path d="M90.6667 64L21.3334 32V192L90.6667 224L165.333 192L234.667 224V64L165.333 32L90.6667 64Z" fill="white"/>
<path fill-rule="evenodd" clip-rule="evenodd" d="M15.5845 23.0151C18.6486 21.0546 22.5005 20.7907 25.8033 22.3151L90.8273 52.3262L161.132 22.1958C163.909 21.0056 167.06 21.049 169.803 22.3151L239.137 54.3151C242.914 56.0586 245.333 59.8395 245.333 64V224C245.333 227.638 243.48 231.024 240.416 232.985C237.351 234.945 233.5 235.209 230.197 233.685L165.173 203.674L94.8685 233.804C92.0915 234.994 88.94 234.951 86.1967 233.685L16.8634 201.685C13.0858 199.941 10.6667 196.161 10.6667 192V32C10.6667 28.3624 12.5204 24.9756 15.5845 23.0151ZM165.173 43.6738L94.8685 73.8042C92.0915 74.9944 88.94 74.951 86.1967 73.6849L32 48.671V185.175L90.8273 212.326L161.132 182.196C163.909 181.006 167.06 181.049 169.803 182.315L224 207.329V70.8249L165.173 43.6738Z" fill="white"/>
<path fill-rule="evenodd" clip-rule="evenodd" d="M165.333 21.3333C171.224 21.3333 176 26.109 176 32V192C176 197.891 171.224 202.667 165.333 202.667C159.442 202.667 154.667 197.891 154.667 192V32C154.667 26.109 159.442 21.3333 165.333 21.3333ZM90.6667 53.3333C96.5577 53.3333 101.333 58.109 101.333 64V224C101.333 229.891 96.5577 234.667 90.6667 234.667C84.7756 234.667 80 229.891 80 224V64C80 58.109 84.7756 53.3333 90.6667 53.3333Z" fill="black"/>
<path fill-rule="evenodd" clip-rule="evenodd" d="M161.132 22.1958C163.909 21.0056 167.06 21.049 169.803 22.3151L204.47 38.3151C209.819 40.7838 212.154 47.1211 209.685 52.47C207.216 57.8188 200.879 60.1536 195.53 57.6849L165.173 43.6738L94.8685 73.8042C92.0915 74.9944 88.94 74.951 86.1968 73.6849L51.5301 57.6849C46.1813 55.2162 43.8465 48.8789 46.3151 43.5301C48.7838 38.1812 55.1212 35.8464 60.47 38.3151L90.8273 52.3262L161.132 22.1958ZM161.132 182.196C163.909 181.006 167.06 181.049 169.803 182.315L204.47 198.315C209.819 200.784 212.154 207.121 209.685 212.47C207.216 217.819 200.879 220.154 195.53 217.685L165.173 203.674L94.8685 233.804C92.0915 234.994 88.94 234.951 86.1968 233.685L51.5301 217.685C46.1813 215.216 43.8465 208.879 46.3151 203.53C48.7838 198.181 55.1212 195.846 60.47 198.315L90.8273 212.326L161.132 182.196Z" fill="white"/>
</mask>
<g mask="url(#mask0_236_266)">
<path d="M0 0H256V256H0V0Z" fill="black"/>
</g>
</svg>
