<svg width="256" height="256" viewBox="0 0 256 256" fill="none" xmlns="http://www.w3.org/2000/svg">
<path d="M144 232H112C109.878 232 107.843 232.843 106.343 234.343C104.843 235.843 104 237.878 104 240C104 242.122 104.843 244.157 106.343 245.657C107.843 247.157 109.878 248 112 248H144C146.122 248 148.157 247.157 149.657 245.657C151.157 244.157 152 242.122 152 240C152 237.878 151.157 235.843 149.657 234.343C148.157 232.843 146.122 232 144 232ZM152 208H104C101.878 208 99.8434 208.843 98.3431 210.343C96.8428 211.843 96 213.878 96 216C96 218.122 96.8428 220.157 98.3431 221.657C99.8434 223.157 101.878 224 104 224H152C154.122 224 156.157 223.157 157.657 221.657C159.157 220.157 160 218.122 160 216C160 213.878 159.157 211.843 157.657 210.343C156.157 208.843 154.122 208 152 208ZM184.71 31.345C169.675 16.29 149.535 7.99998 128 7.99998C117.487 7.97493 107.073 10.0271 97.3557 14.0386C87.6383 18.0501 78.8092 23.9419 71.3756 31.3756C63.9419 38.8092 58.0501 47.6383 54.0386 57.3557C50.0271 67.073 47.9749 77.4872 48 88C48 111.31 56.935 133.115 72.5 147.82L74.68 149.865C83.685 158.285 96 169.82 96 180V192C96 194.122 96.8428 196.157 98.3431 197.657C99.8434 199.157 101.878 200 104 200H116C117.061 200 118.078 199.579 118.828 198.828C119.579 198.078 120 197.061 120 196V137.41C120 136.601 119.755 135.811 119.297 135.144C118.839 134.477 118.19 133.965 117.435 133.675C112.815 131.79 108.427 129.383 104.355 126.5C103.44 125.916 102.653 125.151 102.043 124.253C101.433 123.355 101.012 122.342 100.806 121.276C100.6 120.21 100.613 119.114 100.844 118.053C101.076 116.992 101.521 115.989 102.152 115.106C102.783 114.223 103.587 113.477 104.516 112.915C105.445 112.352 106.478 111.985 107.553 111.834C108.629 111.684 109.723 111.754 110.77 112.041C111.818 112.327 112.796 112.824 113.645 113.5C117.345 116.12 124.47 120 128 120C131.53 120 138.655 116.11 142.365 113.5C144.092 112.414 146.17 112.029 148.171 112.424C150.173 112.819 151.949 113.964 153.134 115.625C154.32 117.285 154.826 119.336 154.549 121.358C154.272 123.38 153.233 125.219 151.645 126.5C147.572 129.378 143.184 131.78 138.565 133.66C137.81 133.95 137.161 134.462 136.703 135.129C136.245 135.796 136 136.586 136 137.395V196C136 197.061 136.421 198.078 137.172 198.828C137.922 199.579 138.939 200 140 200H152C154.122 200 156.157 199.157 157.657 197.657C159.157 196.157 160 194.122 160 192V180C160 170.06 172.18 158.535 181.075 150.115L183.53 147.785C199.54 132.5 208 111.805 208 88C208.053 77.4862 206.022 67.0661 202.024 57.3418C198.027 47.6175 192.142 38.7817 184.71 31.345Z" fill="black"/>
</svg>
