<svg width="256" height="256" viewBox="0 0 256 256" fill="none" xmlns="http://www.w3.org/2000/svg">
<path d="M160 16C147.373 16.0113 134.928 19.0088 123.681 24.7476C112.433 30.4864 102.702 38.8039 95.2829 49.021C87.8634 59.2381 82.9654 71.0651 80.9888 83.5363C79.0123 96.0075 80.0133 108.769 83.91 120.78L26.34 178.34C25.5973 179.083 25.0084 179.966 24.6069 180.937C24.2054 181.908 23.9992 182.949 24 184V224C24 226.122 24.8429 228.157 26.3431 229.657C27.8434 231.157 29.8783 232 32 232H72C74.1217 232 76.1566 231.157 77.6569 229.657C79.1571 228.157 80 226.122 80 224V208H96C98.1217 208 100.157 207.157 101.657 205.657C103.157 204.157 104 202.122 104 200V184H120C121.051 184.001 122.092 183.795 123.063 183.393C124.034 182.992 124.917 182.403 125.66 181.66L135.22 172.09C146.215 175.66 157.854 176.804 169.333 175.445C180.813 174.085 191.862 170.254 201.72 164.214C211.577 158.175 220.008 150.07 226.432 140.46C232.857 130.849 237.122 119.96 238.935 108.543C240.747 97.126 240.064 85.4516 236.932 74.3238C233.8 63.196 228.293 52.8792 220.791 44.0839C213.289 35.2885 203.97 28.2235 193.475 23.3753C182.981 18.5271 171.56 16.0109 160 16ZM180 92C176.835 92 173.742 91.0616 171.111 89.3035C168.48 87.5454 166.429 85.0466 165.218 82.1229C164.007 79.1993 163.69 75.9823 164.307 72.8786C164.925 69.7749 166.449 66.9239 168.686 64.6863C170.924 62.4487 173.775 60.9248 176.879 60.3074C179.982 59.6901 183.199 60.0069 186.123 61.2179C189.047 62.4289 191.545 64.4797 193.304 67.1109C195.062 69.7421 196 72.8355 196 76C196 80.2435 194.314 84.3131 191.314 87.3137C188.313 90.3143 184.243 92 180 92Z" fill="black"/>
</svg>
